# xmcd
#
# Track frame offsets:
#	182
#	20675
#	36810
#	48810
#	81370
#	98720
#	125270
#	147440
#	157920
#	178425
#	192867
#	208502
#	228140
#	245630
#	258477
#	286347
#
# Disc length: 4026 seconds
#
# Revision: 7
# Processed by: cddbd v1.5.2PL0 Copyright (c) Steve Scherf et al.
# Submitted via: audiograbber 1.83.01
#
DISCID=dd0fb810
DTITLE=Conte, Paolo - Concerti
DYEAR=1985
DGENRE=Italien Liedermacher
TTITLE0=Come di
TTITLE1=La ricostuzione del Mocambo
TTITLE2=Via con me
TTITLE3=Alle prese con la verde milonga
TTITLE4=Parigi
TTITLE5=Diavolo rosso
TTITLE6=Hemingway
TTITLE7=Bartali
TTITLE8=Un gelato al limon
TTITLE9=Una giornata al mare
TTITLE10=Il nostro amico Angiolino
TTITLE11=Onda su onda
TTITLE12=Sotto le stelle del jazz
TTITLE13=Azzuro
TTITLE14=Boogie
TTITLE15=Genova per noi
EXTD=
EXTT0=
EXTT1=
EXTT2=
EXTT3=
EXTT4=
EXTT5=
EXTT6=
EXTT7=
EXTT8=
EXTT9=
EXTT10=
EXTT11=
EXTT12=
EXTT13=
EXTT14=
EXTT15=
PLAYORDER=
